HIERARCHY
ROOT Hips
{
	OFFSET 0.000000 0.000000 0.000000
	CHANNELS 6 Xposition Yposition Zposition Zrotation Yrotation Xrotation 
	JOINT LHipJoint
	{
		OFFSET 0.000000 0.000000 0.000000
		CHANNELS 3 Zrotation Yrotation Xrotation
		JOINT LeftUpLeg
		{
			OFFSET 1.363060 -1.794630 0.839290
			CHANNELS 3 Zrotation Yrotation Xrotation
			JOINT LeftLeg
			{
				OFFSET 2.448110 -6.726130 0.000000
				CHANNELS 3 Zrotation Yrotation Xrotation
				JOINT LeftFoot
				{
					OFFSET 2.562200 -7.039590 0.000000
					CHANNELS 3 Zrotation Yrotation Xrotation
					JOINT LeftToeBase
					{
						OFFSET 0.157640 -0.433110 2.322550
						CHANNELS 3 Zrotation Yrotation Xrotation
						End Site
						{
							OFFSET 0.000000 0.000000 0.000000
						}
					}
				}
			}
		}
	}
	JOINT RHipJoint
	{
		OFFSET 0.000000 0.000000 0.000000
		CHANNELS 3 Zrotation Yrotation Xrotation
		JOINT RightUpLeg
		{
			OFFSET -1.305520 -1.794630 0.839290
			CHANNELS 3 Zrotation Yrotation Xrotation
			JOINT RightLeg
			{
				OFFSET -2.542530 -6.985550 0.000000
				CHANNELS 3 Zrotation Yrotation Xrotation
				JOINT RightFoot
				{
					OFFSET -2.568260 -7.056230 0.000000
					CHANNELS 3 Zrotation Yrotation Xrotation
					JOINT RightToeBase
					{
						OFFSET -0.164730 -0.452590 2.363150
						CHANNELS 3 Zrotation Yrotation Xrotation
						End Site
						{
							OFFSET 0.000000 0.000000 0.000000
						}
					}
				}
			}
		}
	}
}
MOTION
Frames: 22
Frame Time: 0.008333
4.911418 17.353517 1.397270 8.376496 -78.871723 9.794979 -10.560652 0.615526 0.437517 -9.146564 2.180290 -20.053103 -2.296040 -1.049267 -2.213114 0.290893 6.574591 4.192693 2.162200 -0.000001 -37.948000 9.930625 0.290820 -1.925247 1.238599 -10.289998 -13.433839 1.840289 1.260547 -4.284678 -1.176348 -11.488914 7.427628 -4.437100 0.000000 -63.223500
4.907938 17.353395 1.388640 8.160152 -78.274999 9.696866 -10.555660 0.630227 0.519793 -9.034291 1.862754 -19.744963 -2.280129 -1.040486 -2.165874 0.278243 6.468690 4.249912 2.137300 0.000000 -38.051300 9.947688 0.236463 -1.974627 1.234711 -10.577119 -12.938701 1.811248 1.251234 -4.335291 -1.242039 -11.781264 7.340949 -4.493200 -0.000001 -63.110800
4.904282 17.353200 1.379615 7.963358 -77.688125 9.577272 -10.548878 0.646560 0.601748 -8.931381 1.566762 -19.439203 -2.267264 -1.033043 -2.125158 0.265449 6.352134 4.312638 2.109200 -0.000001 -38.160300 9.966987 0.179410 -2.014633 1.227004 -10.848196 -12.447445 1.781028 1.242594 -4.393374 -1.310880 -12.078024 7.260150 -4.549100 0.000000 -62.994700
4.900357 17.353016 1.370290 7.781563 -77.112337 9.445354 -10.540581 0.664451 0.684012 -8.836784 1.291427 -19.139084 -2.257208 -1.027158 -2.093209 0.252743 6.226636 4.382760 2.078499 -0.000000 -38.276300 9.988042 0.119607 -2.044381 1.217434 -11.099639 -11.964179 1.749637 1.234792 -4.457835 -1.382788 -12.381838 7.185770 -4.606500 -0.000000 -62.870600
4.896411 17.352766 1.360564 7.618710 -76.550435 9.293235 -10.530113 0.683032 0.765437 -8.748459 1.026969 -18.842452 -2.248403 -1.021614 -2.057485 0.239772 6.105753 4.450960 2.049600 0.000000 -38.398100 10.010974 0.058590 -2.067767 1.203846 -11.336237 -11.484305 1.717346 1.227168 -4.527696 -1.456997 -12.685306 7.116850 -4.662300 -0.000000 -62.743400
4.892406 17.352485 1.350435 7.474774 -76.002976 9.123378 -10.517527 0.702162 0.846150 -8.666009 0.770006 -18.550049 -2.240421 -1.016295 -2.017322 0.226597 5.993349 4.516502 2.023600 -0.000000 -38.525600 10.035571 -0.003066 -2.085767 1.186421 -11.559300 -11.009392 1.684368 1.219664 -4.601945 -1.533249 -12.986943 7.053492 -4.716300 -0.000000 -62.612900
4.888161 17.352265 1.340059 7.336747 -75.466493 8.955535 -10.504521 0.722781 0.926887 -8.592530 0.540452 -18.265948 -2.235956 -1.013332 -2.000573 0.214653 5.862459 4.600130 1.991500 -0.000000 -38.659200 10.061084 -0.066594 -2.093601 1.170599 -11.763571 -10.551426 1.650945 1.213386 -4.680403 -1.611886 -13.294863 6.996213 -4.772300 -0.000000 -62.471100
4.883887 17.352003 1.329273 7.221033 -74.943799 8.767332 -10.489268 0.743557 1.006473 -8.524286 0.310831 -17.984993 -2.231482 -1.009990 -1.976101 0.202686 5.746261 4.678491 1.964100 0.000000 -38.795400 10.088204 -0.129042 -2.100086 1.149536 -11.962646 -10.097636 1.617456 1.206843 -4.761110 -1.691047 -13.593831 6.943368 -4.824200 -0.000000 -62.329400
4.879366 17.351808 1.318222 7.117579 -74.430422 8.575293 -10.473022 0.765282 1.086025 -8.463440 0.094799 -17.711314 -2.229057 -1.007971 -1.965482 0.191683 5.623957 4.768061 1.934600 0.000000 -38.934000 10.116330 -0.191437 -2.101453 1.128017 -12.153037 -9.658650 1.584097 1.200903 -4.843174 -1.771054 -13.891058 6.895518 -4.875800 -0.000000 -62.182000
4.874586 17.351649 1.306906 7.030020 -73.925175 8.376338 -10.455471 0.787599 1.165444 -8.409493 -0.115620 -17.444400 -2.227931 -1.006687 -1.962975 0.181264 5.501975 4.864305 1.905100 -0.000001 -39.072599 10.145541 -0.252658 -2.100762 1.104030 -12.341239 -9.232535 1.551184 1.195228 -4.925303 -1.850735 -14.181920 6.851394 -4.925100 0.000000 -62.033300
4.869577 17.351563 1.295349 6.958625 -73.425242 8.170075 -10.436451 0.810123 1.244962 -8.361861 -0.326519 -17.185120 -2.227632 -1.005782 -1.965200 0.171543 5.383696 4.965806 1.876900 0.000000 -39.209300 10.175712 -0.312033 -2.099752 1.077203 -12.530723 -8.819701 1.518835 1.189579 -5.005642 -1.929652 -14.465376 6.810080 -4.972500 0.000000 -61.885500
4.864238 17.351557 1.283616 6.903213 -72.927722 7.960315 -10.416180 0.832675 1.324751 -8.320969 -0.538488 -16.935760 -2.228477 -1.005453 -1.974861 0.162317 5.265452 5.074256 1.848600 -0.000001 -39.342701 10.206671 -0.369088 -2.099164 1.047658 -12.724537 -8.423254 1.487281 1.184054 -5.083179 -2.007110 -14.741463 6.770708 -5.018000 -0.000000 -61.740300
4.858560 17.351652 1.271758 6.863363 -72.429731 7.749346 -10.394603 0.854794 1.405071 -8.286531 -0.756202 -16.698770 -2.230243 -1.005544 -1.989492 0.153418 5.148858 5.189122 1.821201 0.000000 -39.471300 10.238200 -0.423501 -2.099899 1.015617 -12.923968 -8.044677 1.456487 1.178489 -5.155866 -2.082819 -15.011443 6.731848 -5.062700 -0.000001 -61.599000
4.852445 17.351892 1.259823 6.838428 -71.928224 7.541393 -10.371852 0.876053 1.486064 -8.258222 -0.981718 -16.476716 -2.233026 -1.006149 -2.008799 0.144650 5.032467 5.310527 1.794200 0.000000 -39.594700 10.270074 -0.475065 -2.102204 0.981555 -13.129441 -7.687023 1.426432 1.172881 -5.222376 -2.156415 -15.277297 6.692053 -5.107400 -0.000000 -61.462600
4.845829 17.352273 1.247916 6.826605 -71.421143 7.341772 -10.348178 0.895950 1.567792 -8.235812 -1.215505 -16.273643 -2.237014 -1.007401 -2.033455 0.135877 4.913838 5.439805 1.767100 0.000000 -39.712700 10.301880 -0.523582 -2.105996 0.946993 -13.340308 -7.354218 1.397150 1.167315 -5.281272 -2.227727 -15.541519 6.649787 -5.153300 0.000000 -61.331000
4.838797 17.352853 1.236060 6.824696 -70.906371 7.154761 -10.323722 0.913851 1.650184 -8.218627 -1.458797 -16.091986 -2.242205 -1.009349 -2.062049 0.126690 4.792212 5.576345 1.739700 0.000000 -39.825800 10.333322 -0.569102 -2.111101 0.912965 -13.555123 -7.048802 1.368502 1.161651 -5.330582 -2.296624 -15.807039 6.603079 -5.201800 -0.000000 -61.203700
4.831229 17.353614 1.224319 6.832253 -70.382672 6.984925 -10.298704 0.929390 1.733313 -8.205819 -1.711078 -15.935341 -2.248797 -1.012184 -2.094728 0.117094 4.665486 5.720995 1.711600 0.000000 -39.934300 10.364109 -0.611740 -2.116808 0.881393 -13.771742 -6.774455 1.340474 1.155994 -5.369142 -2.362855 -16.076246 6.550156 -5.253900 -0.000000 -61.079300
4.823188 17.354600 1.212719 6.845362 -69.849567 6.836667 -10.273403 0.942105 1.816931 -8.196458 -1.971085 -15.805810 -2.256847 -1.015970 -2.131133 0.106654 4.531923 5.873933 1.682400 0.000000 -40.039400 10.393925 -0.651662 -2.122678 0.854050 -13.988406 -6.533425 1.313061 1.150295 -5.395657 -2.426311 -16.351364 6.489797 -5.310600 -0.000000 -60.956200
4.814670 17.355773 1.201306 6.862364 -69.307825 6.713665 -10.248078 0.951814 1.900974 -8.189557 -2.237532 -15.705502 -2.266402 -1.020771 -2.170748 0.095231 4.390220 6.034721 1.651500 0.000000 -40.142000 10.422474 -0.688967 -2.128176 0.832846 -14.203504 -6.328015 1.286420 1.144680 -5.409573 -2.486684 -16.633012 6.420596 -5.372199 -0.000000 -60.832600
4.805728 17.357172 1.190118 6.880307 -68.758468 6.618181 -10.222958 0.958380 1.985255 -8.183857 -2.508449 -15.635430 -2.277416 -1.026574 -2.212882 0.082765 4.239593 6.202623 1.618700 -0.000001 -40.242600 10.449556 -0.723834 -2.132965 0.819386 -14.416102 -6.159154 1.260732 1.139140 -5.410171 -2.543548 -16.920921 6.342070 -5.438799 -0.000000 -60.707000
4.796439 17.358736 1.179159 6.897325 -68.203372 6.551293 -10.198236 0.961894 2.069589 -8.178386 -2.781898 -15.595453 -2.289814 -1.033326 -2.257012 0.069156 4.079686 6.376779 1.583900 0.000000 -40.341800 10.475065 -0.756364 -2.136911 0.814812 -14.626211 -6.026774 1.236275 1.133786 -5.398010 -2.596417 -17.213592 6.253900 -5.509900 0.000001 -60.577900
4.786843 17.360481 1.168463 6.911749 -67.644937 6.513047 -10.174067 0.962610 2.153863 -8.172061 -3.056166 -15.584901 -2.303405 -1.040870 -2.302191 0.054354 3.911078 6.556028 1.546899 -0.000000 -40.439600 10.498937 -0.786658 -2.140092 0.820006 -14.834470 -5.929870 1.213413 1.128684 -5.373607 -2.644990 -17.508142 6.156998 -5.584600 -0.000000 -60.444700
